<svg width="400" height="260" viewBox="0 0 400 260" xmlns="http://www.w3.org/2000/svg">
  <title>Monthly Sales</title>
  <defs>
    <linearGradient id="barGrad" x1="0" y1="0" x2="1" y2="0">
      <stop offset="0%" stop-color="#4facfe" />
      <stop offset="100%" stop-color="#00f2fe" />
    </linearGradient>
  </defs>
  <g transform="translate(80, 30)">
    <rect x="0" y="0" width="168" height="30" fill="url(#barGrad)" rx="4" />
    <text x="176" y="20" font-size="14" fill="#333">120</text>
    <text x="-10" y="20" font-size="14" fill="#666" text-anchor="end">Jan</text>
    <rect x="0" y="38" width="126" height="30" fill="url(#barGrad)" rx="4" />
    <text x="134" y="58" font-size="14" fill="#333">90</text>
    <text x="-10" y="58" font-size="14" fill="#666" text-anchor="end">Feb</text>
    <rect x="0" y="76" width="210" height="30" fill="url(#barGrad)" rx="4" />
    <text x="218" y="96" font-size="14" fill="#333">150</text>
    <text x="-10" y="96" font-size="14" fill="#666" text-anchor="end">Mar</text>
    <rect x="0" y="114" width="112" height="30" fill="url(#barGrad)" rx="4" />
    <text x="120" y="134" font-size="14" fill="#333">80</text>
    <text x="-10" y="134" font-size="14" fill="#666" text-anchor="end">Apr</text>
    <rect x="0" y="152" width="280" height="30" fill="url(#barGrad)" rx="4" />
    <text x="288" y="172" font-size="14" fill="#333">200</text>
    <text x="-10" y="172" font-size="14" fill="#666" text-anchor="end">May</text>
    <rect x="0" y="190" width="238" height="30" fill="url(#barGrad)" rx="4" />
    <text x="246" y="210" font-size="14" fill="#333">170</text>
    <text x="-10" y="210" font-size="14" fill="#666" text-anchor="end">Jun</text>
  </g>
</svg>